<?xml version="1.0" standalone="no"?>
<!DOCTYPE svg PUBLIC "-//W3C//DTD SVG 20010904//EN"
 "http://www.w3.org/TR/2001/REC-SVG-20010904/DTD/svg10.dtd">
<svg version="1.0" xmlns="http://www.w3.org/2000/svg"
 width="128.000000pt" height="128.000000pt" viewBox="0 0 128.000000 128.000000"
 preserveAspectRatio="xMidYMid meet">
<metadata>
Created by potrace 1.14, written by Peter Selinger 2001-2017
</metadata>
<g transform="translate(0.000000,128.000000) scale(0.100000,-0.100000)"
fill="#000000" stroke="none">
<path d="M155 1025 l-25 -24 0 -366 0 -366 25 -24 24 -25 466 0 466 0 24 25
25 24 0 366 0 366 -25 24 -24 25 -466 0 -466 0 -24 -25z m940 -37 c9 -5 12
-72 6 -123 -1 -10 -896 -14 -906 -4 -10 11 -8 121 3 128 14 8 884 8 897 -1z
m0 -192 c11 -4 14 -494 2 -512 -7 -12 -884 -14 -902 -2 -6 4 -9 97 -9 250 2
292 0 266 21 270 23 4 876 -1 888 -6z"/>
<path d="M231 941 c-7 -13 -6 -23 3 -36 10 -14 16 -15 34 -6 25 13 28 31 10
49 -17 17 -36 15 -47 -7z"/>
<path d="M341 942 c-11 -20 1 -47 21 -48 35 -1 53 48 22 60 -25 9 -33 7 -43
-12z"/>
<path d="M450 941 c-14 -28 13 -55 41 -41 23 13 25 46 3 54 -25 10 -33 7 -44
-13z"/>
<path d="M627 733 c-13 -13 -7 -42 11 -46 9 -3 99 -5 199 -5 143 0 185 3 194
14 9 11 8 18 -1 29 -10 12 -46 15 -205 15 -105 0 -195 -3 -198 -7z"/>
<path d="M257 600 c-3 -11 0 -23 6 -27 19 -12 748 -10 764 2 8 6 11 18 7 28
-6 16 -36 17 -389 17 -374 0 -383 0 -388 -20z"/>
<path d="M458 499 c-5 -4 -8 -15 -6 -25 3 -18 18 -19 290 -22 260 -2 286 -1
292 15 4 9 2 21 -4 27 -12 12 -553 16 -572 5z"/>
<path d="M260 375 c-9 -11 -10 -18 -1 -29 17 -20 755 -20 772 0 9 11 8 18 -1
29 -19 23 -751 23 -770 0z"/>
</g>
</svg>
